<svg width="1204" height="844" viewBox="0 0 1204 844" fill="none" xmlns="http://www.w3.org/2000/svg">
<rect width="1204" height="844" fill="#F5F5F5"/>
<rect width="1204" height="844" fill="#1EB0C5"/>
<line x1="355.79" y1="98.2701" x2="91.7901" y2="426.27" stroke="url(#paint0_linear_0_1)" stroke-width="20"/>
<line x1="355.79" y1="98.2701" x2="91.7901" y2="426.27" stroke="black" stroke-opacity="0.2" stroke-width="20"/>
<line x1="778.157" y1="86.2146" x2="1022.16" y2="430.215" stroke="url(#paint1_linear_0_1)" stroke-width="20"/>
<line x1="778.157" y1="86.2146" x2="1022.16" y2="430.215" stroke="black" stroke-opacity="0.2" stroke-width="20"/>
<line x1="762.023" y1="763.97" x2="1016.02" y2="427.97" stroke="url(#paint2_linear_0_1)" stroke-width="20"/>
<line x1="762.023" y1="763.97" x2="1016.02" y2="427.97" stroke="black" stroke-opacity="0.2" stroke-width="20"/>
<line x1="651.596" y1="32.815" x2="421.596" y2="816.815" stroke="url(#paint3_linear_0_1)" stroke-width="20"/>
<line x1="651.596" y1="32.815" x2="421.596" y2="816.815" stroke="black" stroke-opacity="0.2" stroke-width="20"/>
<line x1="339.921" y1="753.893" x2="91.9209" y2="413.893" stroke="url(#paint4_linear_0_1)" stroke-width="20"/>
<line x1="339.921" y1="753.893" x2="91.9209" y2="413.893" stroke="black" stroke-opacity="0.2" stroke-width="20"/>
<defs>
<linearGradient id="paint0_linear_0_1" x1="331.997" y1="101.997" x2="-172.002" y2="733.998" gradientUnits="userSpaceOnUse">
<stop stop-color="#27007A"/>
<stop offset="1" stop-color="#14FF00" stop-opacity="0"/>
</linearGradient>
<linearGradient id="paint1_linear_0_1" x1="775.272" y1="110.147" x2="1246.7" y2="768.459" gradientUnits="userSpaceOnUse">
<stop stop-color="#27007A"/>
<stop offset="1" stop-color="#14FF00" stop-opacity="0"/>
</linearGradient>
<linearGradient id="paint2_linear_0_1" x1="785.696" y1="759.515" x2="1270.43" y2="112.242" gradientUnits="userSpaceOnUse">
<stop stop-color="#27007A"/>
<stop offset="1" stop-color="#14FF00" stop-opacity="0"/>
</linearGradient>
<linearGradient id="paint3_linear_0_1" x1="626.317" y1="61.4408" x2="197.96" y2="1570.39" gradientUnits="userSpaceOnUse">
<stop stop-color="#27007A"/>
<stop offset="1" stop-color="#14FF00" stop-opacity="0"/>
</linearGradient>
<linearGradient id="paint4_linear_0_1" x1="342.51" y1="729.956" x2="-136.559" y2="79.3531" gradientUnits="userSpaceOnUse">
<stop stop-color="#27007A"/>
<stop offset="1" stop-color="#14FF00" stop-opacity="0"/>
</linearGradient>
</defs>
</svg>
